<?xml version="1.0" encoding="UTF-8"?>
<!DOCTYPE svg PUBLIC "-//W3C//DTD SVG 1.1//EN" "http://www.w3.org/Graphics/SVG/1.1/DTD/svg11.dtd">
<svg xmlns="http://www.w3.org/2000/svg" version="1.1" width="601px" height="599px" style="shape-rendering:geometricPrecision; text-rendering:geometricPrecision; image-rendering:optimizeQuality; fill-rule:evenodd; clip-rule:evenodd" xmlns:xlink="http://www.w3.org/1999/xlink">
<g><path style="opacity:1" fill="#232323" d="M -0.5,-0.5 C 4.5,-0.5 9.5,-0.5 14.5,-0.5C 14.5,3.5 14.5,7.5 14.5,11.5C 9.5,11.5 4.5,11.5 -0.5,11.5C -0.5,7.5 -0.5,3.5 -0.5,-0.5 Z"/></g>
<g><path style="opacity:1" fill="#292929" d="M 178.5,-0.5 C 259.167,-0.5 339.833,-0.5 420.5,-0.5C 420.5,3.5 420.5,7.5 420.5,11.5C 405.833,11.5 391.167,11.5 376.5,11.5C 324.503,-1.76301 272.503,-1.76301 220.5,11.5C 206.5,11.5 192.5,11.5 178.5,11.5C 178.5,7.5 178.5,3.5 178.5,-0.5 Z"/></g>
<g><path style="opacity:1" fill="#fefefe" d="M 376.5,11.5 C 392.203,15.9591 407.537,21.6257 422.5,28.5C 451.181,41.536 477.181,58.536 500.5,79.5C 500.833,80.5 501.5,81.1667 502.5,81.5C 505.833,85.5 509.5,89.1667 513.5,92.5C 513.833,93.5 514.5,94.1667 515.5,94.5C 536.884,118.247 554.551,144.58 568.5,173.5C 568.66,175.153 569.326,176.486 570.5,177.5C 574.56,187.346 578.227,197.346 581.5,207.5C 582.205,210.354 583.205,213.021 584.5,215.5C 595.636,255.941 598.303,296.941 592.5,338.5C 590.8,351.703 588.133,364.703 584.5,377.5C 583.21,380.642 582.21,383.975 581.5,387.5C 577.843,397.486 574.176,407.486 570.5,417.5C 569.833,417.5 569.5,417.833 569.5,418.5C 556.404,447.712 539.071,474.045 517.5,497.5C 516.599,498.29 515.932,499.29 515.5,500.5C 510.833,504.5 506.5,508.833 502.5,513.5C 501.29,513.932 500.29,514.599 499.5,515.5C 476.718,536.733 451.051,553.733 422.5,566.5C 409.76,572.378 396.76,577.378 383.5,581.5C 327.482,597.427 271.482,597.427 215.5,581.5C 212.551,580.632 209.551,579.632 206.5,578.5C 197.391,575.445 188.391,572.111 179.5,568.5C 178.71,567.599 177.71,566.932 176.5,566.5C 147.816,553.459 121.816,536.459 98.5,515.5C 98.1667,514.5 97.5,513.833 96.5,513.5C 92.5,508.833 88.1667,504.5 83.5,500.5C 83.1667,499.5 82.5,498.833 81.5,498.5C 60.4131,474.666 43.0797,448.332 29.5,419.5C 23.8837,405.977 18.8837,392.311 14.5,378.5C -0.150302,324.177 -0.150302,269.844 14.5,215.5C 15.4885,212.919 16.4885,210.252 17.5,207.5C 20.6101,197.283 24.2768,187.283 28.5,177.5C 29.3446,176.329 30.0113,174.995 30.5,173.5C 43.8642,144.747 61.1975,118.747 82.5,95.5C 83.8333,94.8333 84.8333,93.8333 85.5,92.5C 89.5,89.1667 93.1667,85.5 96.5,81.5C 97.5,81.1667 98.1667,80.5 98.5,79.5C 122.128,58.6804 148.128,41.347 176.5,27.5C 177.791,27.7373 178.791,27.404 179.5,26.5C 190.194,21.7126 201.194,17.7126 212.5,14.5C 215.354,13.7949 218.021,12.7949 220.5,11.5C 272.503,-1.76301 324.503,-1.76301 376.5,11.5 Z"/></g>
<g><path style="opacity:1" fill="#3a3a3a" d="M 420.5,-0.5 C 421.167,-0.5 421.833,-0.5 422.5,-0.5C 422.5,3.5 422.5,7.5 422.5,11.5C 448.5,11.5 474.5,11.5 500.5,11.5C 500.5,7.5 500.5,3.5 500.5,-0.5C 501.167,-0.5 501.833,-0.5 502.5,-0.5C 502.5,3.5 502.5,7.5 502.5,11.5C 529.167,11.5 555.833,11.5 582.5,11.5C 582.5,7.5 582.5,3.5 582.5,-0.5C 588.5,-0.5 594.5,-0.5 600.5,-0.5C 600.5,4.16667 600.5,8.83333 600.5,13.5C 595.167,13.5 589.833,13.5 584.5,13.5C 584.5,39.8333 584.5,66.1667 584.5,92.5C 589.833,92.5 595.167,92.5 600.5,92.5C 600.5,93.1667 600.5,93.8333 600.5,94.5C 595.167,94.5 589.833,94.5 584.5,94.5C 584.5,120.833 584.5,147.167 584.5,173.5C 589.833,173.5 595.167,173.5 600.5,173.5C 600.5,174.167 600.5,174.833 600.5,175.5C 595.167,175.5 589.833,175.5 584.5,175.5C 584.5,188.833 584.5,202.167 584.5,215.5C 583.205,213.021 582.205,210.354 581.5,207.5C 582.494,197.347 582.828,187.014 582.5,176.5C 578.298,176.183 574.298,176.517 570.5,177.5C 569.326,176.486 568.66,175.153 568.5,173.5C 573.167,173.5 577.833,173.5 582.5,173.5C 582.5,147.167 582.5,120.833 582.5,94.5C 560.167,94.5 537.833,94.5 515.5,94.5C 514.5,94.1667 513.833,93.5 513.5,92.5C 536.5,92.5 559.5,92.5 582.5,92.5C 582.5,66.1667 582.5,39.8333 582.5,13.5C 555.833,13.5 529.167,13.5 502.5,13.5C 502.5,36.1667 502.5,58.8333 502.5,81.5C 501.5,81.1667 500.833,80.5 500.5,79.5C 500.5,57.5 500.5,35.5 500.5,13.5C 474.5,13.5 448.5,13.5 422.5,13.5C 422.5,18.5 422.5,23.5 422.5,28.5C 407.537,21.6257 392.203,15.9591 376.5,11.5C 391.167,11.5 405.833,11.5 420.5,11.5C 420.5,7.5 420.5,3.5 420.5,-0.5 Z"/></g>
<g><path style="opacity:1" fill="#2e2e2e" d="M 502.5,-0.5 C 529.167,-0.5 555.833,-0.5 582.5,-0.5C 582.5,3.5 582.5,7.5 582.5,11.5C 555.833,11.5 529.167,11.5 502.5,11.5C 502.5,7.5 502.5,3.5 502.5,-0.5 Z"/></g>
<g><path style="opacity:1" fill="#2c2c2c" d="M 422.5,-0.5 C 448.5,-0.5 474.5,-0.5 500.5,-0.5C 500.5,3.5 500.5,7.5 500.5,11.5C 474.5,11.5 448.5,11.5 422.5,11.5C 422.5,7.5 422.5,3.5 422.5,-0.5 Z"/></g>
<g><path style="opacity:1" fill="#363636" d="M 14.5,-0.5 C 15.1667,-0.5 15.8333,-0.5 16.5,-0.5C 16.5,3.5 16.5,7.5 16.5,11.5C 43.1667,11.5 69.8333,11.5 96.5,11.5C 96.5,7.5 96.5,3.5 96.5,-0.5C 97.1667,-0.5 97.8333,-0.5 98.5,-0.5C 98.5,3.5 98.5,7.5 98.5,11.5C 124.5,11.5 150.5,11.5 176.5,11.5C 176.5,7.5 176.5,3.5 176.5,-0.5C 177.167,-0.5 177.833,-0.5 178.5,-0.5C 178.5,3.5 178.5,7.5 178.5,11.5C 192.5,11.5 206.5,11.5 220.5,11.5C 218.021,12.7949 215.354,13.7949 212.5,14.5C 201.346,13.5052 190.012,13.1719 178.5,13.5C 178.182,18.0323 178.515,22.3656 179.5,26.5C 178.791,27.404 177.791,27.7373 176.5,27.5C 176.5,22.8333 176.5,18.1667 176.5,13.5C 150.5,13.5 124.5,13.5 98.5,13.5C 98.5,35.5 98.5,57.5 98.5,79.5C 98.1667,80.5 97.5,81.1667 96.5,81.5C 96.5,58.8333 96.5,36.1667 96.5,13.5C 69.8333,13.5 43.1667,13.5 16.5,13.5C 16.5,39.8333 16.5,66.1667 16.5,92.5C 39.5,92.5 62.5,92.5 85.5,92.5C 84.8333,93.8333 83.8333,94.8333 82.5,95.5C 60.673,94.5026 38.673,94.1693 16.5,94.5C 16.5,120.833 16.5,147.167 16.5,173.5C 21.1667,173.5 25.8333,173.5 30.5,173.5C 30.0113,174.995 29.3446,176.329 28.5,177.5C 24.7016,176.517 20.7016,176.183 16.5,176.5C 16.1724,187.014 16.5058,197.347 17.5,207.5C 16.4885,210.252 15.4885,212.919 14.5,215.5C 14.5,202.167 14.5,188.833 14.5,175.5C 9.5,175.5 4.5,175.5 -0.5,175.5C -0.5,174.833 -0.5,174.167 -0.5,173.5C 4.5,173.5 9.5,173.5 14.5,173.5C 14.5,147.167 14.5,120.833 14.5,94.5C 9.5,94.5 4.5,94.5 -0.5,94.5C -0.5,93.8333 -0.5,93.1667 -0.5,92.5C 4.5,92.5 9.5,92.5 14.5,92.5C 14.5,66.1667 14.5,39.8333 14.5,13.5C 9.5,13.5 4.5,13.5 -0.5,13.5C -0.5,12.8333 -0.5,12.1667 -0.5,11.5C 4.5,11.5 9.5,11.5 14.5,11.5C 14.5,7.5 14.5,3.5 14.5,-0.5 Z"/></g>
<g><path style="opacity:1" fill="#252525" d="M 98.5,-0.5 C 124.5,-0.5 150.5,-0.5 176.5,-0.5C 176.5,3.5 176.5,7.5 176.5,11.5C 150.5,11.5 124.5,11.5 98.5,11.5C 98.5,7.5 98.5,3.5 98.5,-0.5 Z"/></g>
<g><path style="opacity:1" fill="#242424" d="M 16.5,-0.5 C 43.1667,-0.5 69.8333,-0.5 96.5,-0.5C 96.5,3.5 96.5,7.5 96.5,11.5C 69.8333,11.5 43.1667,11.5 16.5,11.5C 16.5,7.5 16.5,3.5 16.5,-0.5 Z"/></g>
<g><path style="opacity:1" fill="#212121" d="M -0.5,13.5 C 4.5,13.5 9.5,13.5 14.5,13.5C 14.5,39.8333 14.5,66.1667 14.5,92.5C 9.5,92.5 4.5,92.5 -0.5,92.5C -0.5,66.1667 -0.5,39.8333 -0.5,13.5 Z"/></g>
<g><path style="opacity:1" fill="#222222" d="M 96.5,81.5 C 93.1667,85.5 89.5,89.1667 85.5,92.5C 62.5,92.5 39.5,92.5 16.5,92.5C 16.5,66.1667 16.5,39.8333 16.5,13.5C 43.1667,13.5 69.8333,13.5 96.5,13.5C 96.5,36.1667 96.5,58.8333 96.5,81.5 Z"/></g>
<g><path style="opacity:1" fill="#232323" d="M 176.5,27.5 C 148.128,41.347 122.128,58.6804 98.5,79.5C 98.5,57.5 98.5,35.5 98.5,13.5C 124.5,13.5 150.5,13.5 176.5,13.5C 176.5,18.1667 176.5,22.8333 176.5,27.5 Z"/></g>
<g><path style="opacity:1" fill="#262626" d="M 212.5,14.5 C 201.194,17.7126 190.194,21.7126 179.5,26.5C 178.515,22.3656 178.182,18.0323 178.5,13.5C 190.012,13.1719 201.346,13.5052 212.5,14.5 Z"/></g>
<g><path style="opacity:1" fill="#2a2a2a" d="M 500.5,79.5 C 477.181,58.536 451.181,41.536 422.5,28.5C 422.5,23.5 422.5,18.5 422.5,13.5C 448.5,13.5 474.5,13.5 500.5,13.5C 500.5,35.5 500.5,57.5 500.5,79.5 Z"/></g>
<g><path style="opacity:1" fill="#2c2c2c" d="M 513.5,92.5 C 509.5,89.1667 505.833,85.5 502.5,81.5C 502.5,58.8333 502.5,36.1667 502.5,13.5C 529.167,13.5 555.833,13.5 582.5,13.5C 582.5,39.8333 582.5,66.1667 582.5,92.5C 559.5,92.5 536.5,92.5 513.5,92.5 Z"/></g>
<g><path style="opacity:1" fill="#2d2d2d" d="M 600.5,13.5 C 600.5,39.8333 600.5,66.1667 600.5,92.5C 595.167,92.5 589.833,92.5 584.5,92.5C 584.5,66.1667 584.5,39.8333 584.5,13.5C 589.833,13.5 595.167,13.5 600.5,13.5 Z"/></g>
<g><path style="opacity:1" fill="#1d1d1d" d="M -0.5,94.5 C 4.5,94.5 9.5,94.5 14.5,94.5C 14.5,120.833 14.5,147.167 14.5,173.5C 9.5,173.5 4.5,173.5 -0.5,173.5C -0.5,147.167 -0.5,120.833 -0.5,94.5 Z"/></g>
<g><path style="opacity:1" fill="#1e1e1e" d="M 82.5,95.5 C 61.1975,118.747 43.8642,144.747 30.5,173.5C 25.8333,173.5 21.1667,173.5 16.5,173.5C 16.5,147.167 16.5,120.833 16.5,94.5C 38.673,94.1693 60.673,94.5026 82.5,95.5 Z"/></g>
<g><path style="opacity:1" fill="#282828" d="M 515.5,94.5 C 537.833,94.5 560.167,94.5 582.5,94.5C 582.5,120.833 582.5,147.167 582.5,173.5C 577.833,173.5 573.167,173.5 568.5,173.5C 554.551,144.58 536.884,118.247 515.5,94.5 Z"/></g>
<g><path style="opacity:1" fill="#292929" d="M 600.5,94.5 C 600.5,120.833 600.5,147.167 600.5,173.5C 595.167,173.5 589.833,173.5 584.5,173.5C 584.5,147.167 584.5,120.833 584.5,94.5C 589.833,94.5 595.167,94.5 600.5,94.5 Z"/></g>
<g><path style="opacity:1" fill="#a9a9a9" d="M 410.5,174.5 C 410.5,173.833 410.167,173.5 409.5,173.5C 411.688,169.793 414.355,166.46 417.5,163.5C 418.521,164.002 418.688,164.668 418,165.5C 415.259,168.398 412.759,171.398 410.5,174.5 Z"/></g>
<g><path style="opacity:1" fill="#171717" d="M -0.5,175.5 C 4.5,175.5 9.5,175.5 14.5,175.5C 14.5,188.833 14.5,202.167 14.5,215.5C -0.150302,269.844 -0.150302,324.177 14.5,378.5C 14.5,391.5 14.5,404.5 14.5,417.5C 9.5,417.5 4.5,417.5 -0.5,417.5C -0.5,336.833 -0.5,256.167 -0.5,175.5 Z"/></g>
<g><path style="opacity:1" fill="#1c1c1c" d="M 28.5,177.5 C 24.2768,187.283 20.6101,197.283 17.5,207.5C 16.5058,197.347 16.1724,187.014 16.5,176.5C 20.7016,176.183 24.7016,176.517 28.5,177.5 Z"/></g>
<g><path style="opacity:1" fill="#252525" d="M 581.5,207.5 C 578.227,197.346 574.56,187.346 570.5,177.5C 574.298,176.517 578.298,176.183 582.5,176.5C 582.828,187.014 582.494,197.347 581.5,207.5 Z"/></g>
<g><path style="opacity:1" fill="#242424" d="M 600.5,175.5 C 600.5,229.833 600.5,284.167 600.5,338.5C 597.833,338.5 595.167,338.5 592.5,338.5C 598.303,296.941 595.636,255.941 584.5,215.5C 584.5,202.167 584.5,188.833 584.5,175.5C 589.833,175.5 595.167,175.5 600.5,175.5 Z"/></g>
<g><path style="opacity:1" fill="#424242" d="M 409.5,173.5 C 410.167,173.5 410.5,173.833 410.5,174.5C 404.064,185.12 397.064,195.12 389.5,204.5C 389.539,203.417 389.873,202.417 390.5,201.5C 390.03,200.537 389.363,200.537 388.5,201.5C 395.319,192.111 402.319,182.778 409.5,173.5 Z"/></g>
<g><path style="opacity:1" fill="#151515" d="M 389.5,204.5 C 376.475,224.12 363.308,243.787 350,263.5C 344.325,270.84 338.659,278.173 333,285.5C 329.264,289.678 328.264,294.345 330,299.5C 344.963,319.373 359.463,339.373 373.5,359.5C 370.713,360.477 367.713,360.81 364.5,360.5C 351.022,341.507 337.355,322.507 323.5,303.5C 322.635,302.417 321.635,302.251 320.5,303C 318.249,306.068 316.249,309.235 314.5,312.5C 312.469,313.539 311.136,315.205 310.5,317.5C 299.738,331.584 289.404,345.918 279.5,360.5C 276.302,361.036 273.635,360.369 271.5,358.5C 280.119,344.949 289.452,331.949 299.5,319.5C 301.446,318.965 302.446,317.632 302.5,315.5C 306.176,309.992 310.176,304.659 314.5,299.5C 318.371,296.648 318.371,293.981 314.5,291.5C 300.312,272.428 286.645,253.094 273.5,233.5C 276.909,233.249 280.242,233.583 283.5,234.5C 294.687,252.189 306.854,269.189 320,285.5C 320.483,286.448 320.649,287.448 320.5,288.5C 321.5,288.5 322.5,288.5 323.5,288.5C 323.351,287.448 323.517,286.448 324,285.5C 325.674,284.324 327.174,282.99 328.5,281.5C 332.866,273.877 338.033,266.877 344,260.5C 344.904,257.602 346.238,254.936 348,252.5C 361.088,234.941 374.588,217.941 388.5,201.5C 389.363,200.537 390.03,200.537 390.5,201.5C 389.873,202.417 389.539,203.417 389.5,204.5 Z"/></g>
<g><path style="opacity:1" fill="#a2a2a2" d="M 377.5,233.5 C 409.996,232.502 442.662,232.168 475.5,232.5C 475.806,235.385 475.473,238.052 474.5,240.5C 474.5,238.167 474.5,235.833 474.5,233.5C 442.167,233.5 409.833,233.5 377.5,233.5 Z"/></g>
<g><path style="opacity:1" fill="#474747" d="M 180.5,234.5 C 180.5,234.167 180.5,233.833 180.5,233.5C 209.167,233.5 237.833,233.5 266.5,233.5C 266.5,235.833 266.5,238.167 266.5,240.5C 240.5,240.5 214.5,240.5 188.5,240.5C 213.661,239.502 238.995,239.169 264.5,239.5C 264.5,237.833 264.5,236.167 264.5,234.5C 236.5,234.5 208.5,234.5 180.5,234.5 Z"/></g>
<g><path style="opacity:1" fill="#3f3f3f" d="M 377.5,233.5 C 409.833,233.5 442.167,233.5 474.5,233.5C 474.5,235.833 474.5,238.167 474.5,240.5C 459.833,240.5 445.167,240.5 430.5,240.5C 444.657,239.504 458.99,239.171 473.5,239.5C 473.5,237.833 473.5,236.167 473.5,234.5C 441.833,234.5 410.167,234.5 378.5,234.5C 378.5,236.167 378.5,237.833 378.5,239.5C 393.01,239.171 407.343,239.504 421.5,240.5C 406.833,240.5 392.167,240.5 377.5,240.5C 377.5,238.167 377.5,235.833 377.5,233.5 Z"/></g>
<g><path style="opacity:1" fill="#373737" d="M 83.5,234.5 C 80.5,234.5 77.5,234.5 74.5,234.5C 74.5,276.5 74.5,318.5 74.5,360.5C 76.5,360.5 78.5,360.5 80.5,360.5C 80.1681,321.33 80.5015,282.33 81.5,243.5C 81.5,282.167 81.5,320.833 81.5,359.5C 79.3647,361.369 76.6981,362.036 73.5,361.5C 73.5,318.833 73.5,276.167 73.5,233.5C 77.0419,233.187 80.3752,233.521 83.5,234.5 Z"/></g>
<g><path style="opacity:1" fill="#0e0e0e" d="M 83.5,234.5 C 104.305,264.541 124.638,294.874 144.5,325.5C 144.932,326.71 145.599,327.71 146.5,328.5C 147.437,330.769 148.77,332.769 150.5,334.5C 150.932,335.71 151.599,336.71 152.5,337.5C 153.167,337.5 153.5,337.833 153.5,338.5C 153.75,340.674 154.75,342.341 156.5,343.5C 158.507,346.574 160.507,349.574 162.5,352.5C 162.932,353.71 163.599,354.71 164.5,355.5C 165.859,357.503 167.192,359.503 168.5,361.5C 168.932,362.71 169.599,363.71 170.5,364.5C 171.167,364.5 171.5,364.833 171.5,365.5C 171.75,367.674 172.75,369.341 174.5,370.5C 179.991,378.903 185.658,387.236 191.5,395.5C 191.5,396.167 191.5,396.833 191.5,397.5C 187.913,394.71 184.746,391.376 182,387.5C 172.816,374.724 163.482,362.057 154,349.5C 140.962,329.65 127.795,309.984 114.5,290.5C 114.5,289.167 113.833,288.5 112.5,288.5C 103.14,274.46 93.8066,260.46 84.5,246.5C 84.1898,244.856 83.1898,243.856 81.5,243.5C 80.5015,282.33 80.1681,321.33 80.5,360.5C 78.5,360.5 76.5,360.5 74.5,360.5C 74.5,318.5 74.5,276.5 74.5,234.5C 77.5,234.5 80.5,234.5 83.5,234.5 Z"/></g>
<g><path style="opacity:1" fill="#060606" d="M 180.5,234.5 C 208.5,234.5 236.5,234.5 264.5,234.5C 264.5,236.167 264.5,237.833 264.5,239.5C 238.995,239.169 213.661,239.502 188.5,240.5C 187.503,257.325 187.17,274.325 187.5,291.5C 211.833,291.5 236.167,291.5 260.5,291.5C 260.5,293.5 260.5,295.5 260.5,297.5C 236.167,297.5 211.833,297.5 187.5,297.5C 187.5,316.167 187.5,334.833 187.5,353.5C 213.145,355.491 239.145,356.158 265.5,355.5C 265.833,355.5 266.167,355.5 266.5,355.5C 266.5,356.833 266.5,358.167 266.5,359.5C 237.833,359.5 209.167,359.5 180.5,359.5C 180.5,317.833 180.5,276.167 180.5,234.5 Z"/></g>
<g><path style="opacity:1" fill="#040404" d="M 430.5,240.5 C 429.501,279.996 429.168,319.663 429.5,359.5C 427.5,359.5 425.5,359.5 423.5,359.5C 423.832,319.663 423.499,279.996 422.5,240.5C 422.167,240.5 421.833,240.5 421.5,240.5C 407.343,239.504 393.01,239.171 378.5,239.5C 378.5,237.833 378.5,236.167 378.5,234.5C 410.167,234.5 441.833,234.5 473.5,234.5C 473.5,236.167 473.5,237.833 473.5,239.5C 458.99,239.171 444.657,239.504 430.5,240.5 Z"/></g>
<g><path style="opacity:1" fill="#cccccc" d="M 180.5,233.5 C 180.5,233.833 180.5,234.167 180.5,234.5C 180.5,276.167 180.5,317.833 180.5,359.5C 180.5,360.167 180.5,360.833 180.5,361.5C 179.167,340.511 178.5,319.177 178.5,297.5C 178.5,275.823 179.167,254.489 180.5,233.5 Z"/></g>
<g><path style="opacity:1" fill="#373737" d="M 422.5,240.5 C 423.499,279.996 423.832,319.663 423.5,359.5C 425.5,359.5 427.5,359.5 429.5,359.5C 429.168,319.663 429.501,279.996 430.5,240.5C 430.5,280.833 430.5,321.167 430.5,361.5C 427.833,361.5 425.167,361.5 422.5,361.5C 422.5,321.167 422.5,280.833 422.5,240.5 Z"/></g>
<g><path style="opacity:1" fill="#a7a7a7" d="M 81.5,243.5 C 83.1898,243.856 84.1898,244.856 84.5,246.5C 82.8351,283.989 81.8351,321.656 81.5,359.5C 81.5,320.833 81.5,282.167 81.5,243.5 Z"/></g>
<g><path style="opacity:1" fill="#7c7c7c" d="M 112.5,288.5 C 113.833,288.5 114.5,289.167 114.5,290.5C 113.167,290.5 112.5,289.833 112.5,288.5 Z"/></g>
<g><path style="opacity:1" fill="#959595" d="M 188.5,240.5 C 188.5,257.167 188.5,273.833 188.5,290.5C 212.5,290.5 236.5,290.5 260.5,290.5C 260.5,290.833 260.5,291.167 260.5,291.5C 236.167,291.5 211.833,291.5 187.5,291.5C 187.17,274.325 187.503,257.325 188.5,240.5 Z"/></g>
<g><path style="opacity:1" fill="#828282" d="M 314.5,291.5 C 318.371,293.981 318.371,296.648 314.5,299.5C 315.833,296.833 315.833,294.167 314.5,291.5 Z"/></g>
<g><path style="opacity:1" fill="#707070" d="M 260.5,297.5 C 236.5,298.167 212.5,298.833 188.5,299.5C 188.5,317.5 188.5,335.5 188.5,353.5C 188.167,353.5 187.833,353.5 187.5,353.5C 187.5,334.833 187.5,316.167 187.5,297.5C 211.833,297.5 236.167,297.5 260.5,297.5 Z"/></g>
<g><path style="opacity:1" fill="#d6d6d6" d="M 260.5,290.5 C 261.748,291.334 262.415,292.667 262.5,294.5C 262.449,296.1 262.116,297.6 261.5,299C 237.169,299.5 212.836,299.667 188.5,299.5C 212.5,298.833 236.5,298.167 260.5,297.5C 260.5,295.5 260.5,293.5 260.5,291.5C 260.5,291.167 260.5,290.833 260.5,290.5 Z"/></g>
<g><path style="opacity:1" fill="#888888" d="M 314.5,312.5 C 313.876,314.754 312.543,316.421 310.5,317.5C 311.136,315.205 312.469,313.539 314.5,312.5 Z"/></g>
<g><path style="opacity:1" fill="#7d7d7d" d="M 302.5,315.5 C 302.446,317.632 301.446,318.965 299.5,319.5C 300.026,317.77 301.026,316.436 302.5,315.5 Z"/></g>
<g><path style="opacity:1" fill="#515151" d="M 520.5,325.5 C 516.548,324.322 512.548,324.322 508.5,325.5C 510.048,324.206 512.048,323.539 514.5,323.5C 516.952,323.539 518.952,324.206 520.5,325.5 Z"/></g>
<g><path style="opacity:1" fill="#1d1d1d" d="M 497.5,347.5 C 496.781,349.091 495.781,350.591 494.5,352C 491.183,352.498 487.85,352.665 484.5,352.5C 484.169,350.678 483.502,349.011 482.5,347.5C 483.211,345.158 484.544,344.825 486.5,346.5C 488.941,347.756 491.274,347.756 493.5,346.5C 494.492,339.352 494.825,332.019 494.5,324.5C 495.5,324.5 496.5,324.5 497.5,324.5C 497.5,332.167 497.5,339.833 497.5,347.5 Z"/></g>
<g><path style="opacity:1" fill="#1d1d1d" d="M 520.5,325.5 C 521.496,325.414 522.329,325.748 523,326.5C 523.494,328.134 523.66,329.801 523.5,331.5C 521.328,330.794 519.328,329.794 517.5,328.5C 517.03,327.307 516.03,326.64 514.5,326.5C 512.97,326.64 511.97,327.307 511.5,328.5C 507.843,329.826 507.51,331.826 510.5,334.5C 516.277,334.27 520.944,336.27 524.5,340.5C 524.599,343.237 524.265,345.904 523.5,348.5C 522.77,349.712 521.77,350.712 520.5,351.5C 515.27,353.154 510.437,352.488 506,349.5C 504.991,347.975 504.491,346.308 504.5,344.5C 507.256,344.716 509.59,345.716 511.5,347.5C 511.97,348.693 512.97,349.36 514.5,349.5C 516.03,349.36 517.03,348.693 517.5,347.5C 518.496,347.586 519.329,347.252 520,346.5C 520.494,344.866 520.66,343.199 520.5,341.5C 515.235,340.918 510.235,339.584 505.5,337.5C 504.671,334.531 504.505,331.531 505,328.5C 505.422,326.574 506.589,325.574 508.5,325.5C 512.548,324.322 516.548,324.322 520.5,325.5 Z"/></g>
<g><path style="opacity:1" fill="#808080" d="M 497.5,347.5 C 497.5,339.833 497.5,332.167 497.5,324.5C 496.5,324.5 495.5,324.5 494.5,324.5C 494.825,332.019 494.492,339.352 493.5,346.5C 493.5,338.833 493.5,331.167 493.5,323.5C 495.5,323.5 497.5,323.5 499.5,323.5C 499.666,331.174 499.5,338.841 499,346.5C 498.617,347.056 498.117,347.389 497.5,347.5 Z"/></g>
<g><path style="opacity:1" fill="#797979" d="M 144.5,325.5 C 146.048,325.821 146.715,326.821 146.5,328.5C 145.599,327.71 144.932,326.71 144.5,325.5 Z"/></g>
<g><path style="opacity:1" fill="#777777" d="M 517.5,328.5 C 515.5,328.5 513.5,328.5 511.5,328.5C 511.97,327.307 512.97,326.64 514.5,326.5C 516.03,326.64 517.03,327.307 517.5,328.5 Z"/></g>
<g><path style="opacity:1" fill="#9a9a9a" d="M 511.5,328.5 C 510.659,330.379 510.325,332.379 510.5,334.5C 507.51,331.826 507.843,329.826 511.5,328.5 Z"/></g>
<g><path style="opacity:1" fill="#797979" d="M 150.5,334.5 C 152.048,334.821 152.715,335.821 152.5,337.5C 151.599,336.71 150.932,335.71 150.5,334.5 Z"/></g>
<g><path style="opacity:1" fill="#1d1d1d" d="M 592.5,338.5 C 595.167,338.5 597.833,338.5 600.5,338.5C 600.5,364.833 600.5,391.167 600.5,417.5C 595.167,417.5 589.833,417.5 584.5,417.5C 584.5,404.167 584.5,390.833 584.5,377.5C 588.133,364.703 590.8,351.703 592.5,338.5 Z"/></g>
<g><path style="opacity:1" fill="#5f5f5f" d="M 153.5,338.5 C 155.408,339.486 156.408,341.152 156.5,343.5C 154.75,342.341 153.75,340.674 153.5,338.5 Z"/></g>
<g><path style="opacity:1" fill="#727272" d="M 524.5,340.5 C 525.152,341.449 525.486,342.615 525.5,344C 525.693,346.008 525.026,347.508 523.5,348.5C 524.265,345.904 524.599,343.237 524.5,340.5 Z"/></g>
<g><path style="opacity:1" fill="#575757" d="M 486.5,346.5 C 484.544,344.825 483.211,345.158 482.5,347.5C 481.596,346.791 481.263,345.791 481.5,344.5C 483.781,344.077 485.448,344.744 486.5,346.5 Z"/></g>
<g><path style="opacity:1" fill="#242424" d="M 472.5,346.5 C 477.161,347.324 477.661,349.324 474,352.5C 471.535,350.946 471.035,348.946 472.5,346.5 Z"/></g>
<g><path style="opacity:1" fill="#6f6f6f" d="M 511.5,347.5 C 513.5,347.5 515.5,347.5 517.5,347.5C 517.03,348.693 516.03,349.36 514.5,349.5C 512.97,349.36 511.97,348.693 511.5,347.5 Z"/></g>
<g><path style="opacity:1" fill="#6b6b6b" d="M 188.5,353.5 C 214.855,352.842 240.855,353.509 266.5,355.5C 266.167,355.5 265.833,355.5 265.5,355.5C 239.833,354.833 214.167,354.167 188.5,353.5 Z"/></g>
<g><path style="opacity:1" fill="#7a7a7a" d="M 162.5,352.5 C 164.048,352.821 164.715,353.821 164.5,355.5C 163.599,354.71 162.932,353.71 162.5,352.5 Z"/></g>
<g><path style="opacity:1" fill="#323232" d="M 187.5,353.5 C 187.833,353.5 188.167,353.5 188.5,353.5C 214.167,354.167 239.833,354.833 265.5,355.5C 239.145,356.158 213.145,355.491 187.5,353.5 Z"/></g>
<g><path style="opacity:1" fill="#4d4d4d" d="M 180.5,359.5 C 209.167,359.5 237.833,359.5 266.5,359.5C 238.186,361.492 209.519,362.159 180.5,361.5C 180.5,360.833 180.5,360.167 180.5,359.5 Z"/></g>
<g><path style="opacity:1" fill="#5e5e5e" d="M 271.5,358.5 C 273.635,360.369 276.302,361.036 279.5,360.5C 276.713,361.477 273.713,361.81 270.5,361.5C 270.263,360.209 270.596,359.209 271.5,358.5 Z"/></g>
<g><path style="opacity:1" fill="#666666" d="M 373.5,359.5 C 374.043,359.56 374.376,359.893 374.5,360.5C 371.02,361.806 367.687,361.806 364.5,360.5C 367.713,360.81 370.713,360.477 373.5,359.5 Z"/></g>
<g><path style="opacity:1" fill="#797979" d="M 168.5,361.5 C 170.048,361.821 170.715,362.821 170.5,364.5C 169.599,363.71 168.932,362.71 168.5,361.5 Z"/></g>
<g><path style="opacity:1" fill="#676767" d="M 171.5,365.5 C 173.408,366.486 174.408,368.152 174.5,370.5C 172.75,369.341 171.75,367.674 171.5,365.5 Z"/></g>
<g><path style="opacity:1" fill="#1e1e1e" d="M 581.5,387.5 C 582.494,397.319 582.827,407.319 582.5,417.5C 578.5,417.5 574.5,417.5 570.5,417.5C 574.176,407.486 577.843,397.486 581.5,387.5 Z"/></g>
<g><path style="opacity:1" fill="#464646" d="M 191.5,395.5 C 195.181,401.531 199.348,407.197 204,412.5C 205.879,414.871 207.045,417.538 207.5,420.5C 206.504,420.586 205.671,420.252 205,419.5C 200.898,413.429 196.731,407.429 192.5,401.5C 191.754,400.264 191.421,398.93 191.5,397.5C 191.5,396.833 191.5,396.167 191.5,395.5 Z"/></g>
<g><path style="opacity:1" fill="#101010" d="M -0.5,419.5 C 4.5,419.5 9.5,419.5 14.5,419.5C 14.5,445.833 14.5,472.167 14.5,498.5C 9.5,498.5 4.5,498.5 -0.5,498.5C -0.5,472.167 -0.5,445.833 -0.5,419.5 Z"/></g>
<g><path style="opacity:1" fill="#111111" d="M 29.5,419.5 C 43.0797,448.332 60.4131,474.666 81.5,498.5C 59.8333,498.5 38.1667,498.5 16.5,498.5C 16.5,472.167 16.5,445.833 16.5,419.5C 20.8333,419.5 25.1667,419.5 29.5,419.5 Z"/></g>
<g><path style="opacity:1" fill="#1a1a1a" d="M 569.5,418.5 C 573.833,418.5 578.167,418.5 582.5,418.5C 582.5,445.167 582.5,471.833 582.5,498.5C 560.66,498.831 538.994,498.497 517.5,497.5C 539.071,474.045 556.404,447.712 569.5,418.5 Z"/></g>
<g><path style="opacity:1" fill="#1b1b1b" d="M 600.5,419.5 C 600.5,445.833 600.5,472.167 600.5,498.5C 595.167,498.5 589.833,498.5 584.5,498.5C 584.5,472.167 584.5,445.833 584.5,419.5C 589.833,419.5 595.167,419.5 600.5,419.5 Z"/></g>
<g><path style="opacity:1" fill="#8a8a8a" d="M 207.5,420.5 C 210.076,420.722 210.91,422.055 210,424.5C 208.294,423.692 207.461,422.359 207.5,420.5 Z"/></g>
<g><path style="opacity:1" fill="#0f0f0f" d="M -0.5,500.5 C 4.5,500.5 9.5,500.5 14.5,500.5C 14.5,526.833 14.5,553.167 14.5,579.5C 9.5,579.5 4.5,579.5 -0.5,579.5C -0.5,553.167 -0.5,526.833 -0.5,500.5 Z"/></g>
<g><path style="opacity:1" fill="#0f0f0f" d="M 83.5,500.5 C 88.1667,504.5 92.5,508.833 96.5,513.5C 96.5,535.5 96.5,557.5 96.5,579.5C 69.8333,579.5 43.1667,579.5 16.5,579.5C 16.5,553.167 16.5,526.833 16.5,500.5C 38.8333,500.5 61.1667,500.5 83.5,500.5 Z"/></g>
<g><path style="opacity:1" fill="#181818" d="M 515.5,500.5 C 537.833,500.5 560.167,500.5 582.5,500.5C 582.5,526.833 582.5,553.167 582.5,579.5C 555.833,579.5 529.167,579.5 502.5,579.5C 502.5,557.5 502.5,535.5 502.5,513.5C 506.5,508.833 510.833,504.5 515.5,500.5 Z"/></g>
<g><path style="opacity:1" fill="#2d2d2d" d="M 584.5,377.5 C 584.5,390.833 584.5,404.167 584.5,417.5C 589.833,417.5 595.167,417.5 600.5,417.5C 600.5,418.167 600.5,418.833 600.5,419.5C 595.167,419.5 589.833,419.5 584.5,419.5C 584.5,445.833 584.5,472.167 584.5,498.5C 589.833,498.5 595.167,498.5 600.5,498.5C 600.5,499.167 600.5,499.833 600.5,500.5C 595.167,500.5 589.833,500.5 584.5,500.5C 584.5,526.833 584.5,553.167 584.5,579.5C 589.833,579.5 595.167,579.5 600.5,579.5C 600.5,580.167 600.5,580.833 600.5,581.5C 595.167,581.5 589.833,581.5 584.5,581.5C 584.5,587.167 584.5,592.833 584.5,598.5C 583.833,598.5 583.167,598.5 582.5,598.5C 582.5,592.833 582.5,587.167 582.5,581.5C 555.833,581.5 529.167,581.5 502.5,581.5C 502.5,587.167 502.5,592.833 502.5,598.5C 501.833,598.5 501.167,598.5 500.5,598.5C 500.5,592.833 500.5,587.167 500.5,581.5C 495.833,581.5 491.167,581.5 486.5,581.5C 470.833,580.833 455.167,580.167 439.5,579.5C 459.833,579.5 480.167,579.5 500.5,579.5C 500.831,557.993 500.497,536.66 499.5,515.5C 500.29,514.599 501.29,513.932 502.5,513.5C 502.5,535.5 502.5,557.5 502.5,579.5C 529.167,579.5 555.833,579.5 582.5,579.5C 582.5,553.167 582.5,526.833 582.5,500.5C 560.167,500.5 537.833,500.5 515.5,500.5C 515.932,499.29 516.599,498.29 517.5,497.5C 538.994,498.497 560.66,498.831 582.5,498.5C 582.5,471.833 582.5,445.167 582.5,418.5C 578.167,418.5 573.833,418.5 569.5,418.5C 569.5,417.833 569.833,417.5 570.5,417.5C 574.5,417.5 578.5,417.5 582.5,417.5C 582.827,407.319 582.494,397.319 581.5,387.5C 582.21,383.975 583.21,380.642 584.5,377.5 Z"/></g>
<g><path style="opacity:1" fill="#1a1a1a" d="M 600.5,500.5 C 600.5,526.833 600.5,553.167 600.5,579.5C 595.167,579.5 589.833,579.5 584.5,579.5C 584.5,553.167 584.5,526.833 584.5,500.5C 589.833,500.5 595.167,500.5 600.5,500.5 Z"/></g>
<g><path style="opacity:1" fill="#0f0f0f" d="M 98.5,515.5 C 121.816,536.459 147.816,553.459 176.5,566.5C 176.5,570.833 176.5,575.167 176.5,579.5C 150.5,579.5 124.5,579.5 98.5,579.5C 98.5,558.167 98.5,536.833 98.5,515.5 Z"/></g>
<g><path style="opacity:1" fill="#151515" d="M 499.5,515.5 C 500.497,536.66 500.831,557.993 500.5,579.5C 480.167,579.5 459.833,579.5 439.5,579.5C 433.833,579.5 428.167,579.5 422.5,579.5C 422.5,575.167 422.5,570.833 422.5,566.5C 451.051,553.733 476.718,536.733 499.5,515.5 Z"/></g>
<g><path style="opacity:1" fill="#111111" d="M 179.5,568.5 C 188.391,572.111 197.391,575.445 206.5,578.5C 197.348,579.494 188.015,579.827 178.5,579.5C 178.185,575.629 178.518,571.962 179.5,568.5 Z"/></g>
<g><path style="opacity:1" fill="#222222" d="M 14.5,378.5 C 18.8837,392.311 23.8837,405.977 29.5,419.5C 25.1667,419.5 20.8333,419.5 16.5,419.5C 16.5,445.833 16.5,472.167 16.5,498.5C 38.1667,498.5 59.8333,498.5 81.5,498.5C 82.5,498.833 83.1667,499.5 83.5,500.5C 61.1667,500.5 38.8333,500.5 16.5,500.5C 16.5,526.833 16.5,553.167 16.5,579.5C 43.1667,579.5 69.8333,579.5 96.5,579.5C 96.5,557.5 96.5,535.5 96.5,513.5C 97.5,513.833 98.1667,514.5 98.5,515.5C 98.5,536.833 98.5,558.167 98.5,579.5C 124.5,579.5 150.5,579.5 176.5,579.5C 176.5,575.167 176.5,570.833 176.5,566.5C 177.71,566.932 178.71,567.599 179.5,568.5C 178.518,571.962 178.185,575.629 178.5,579.5C 188.015,579.827 197.348,579.494 206.5,578.5C 209.551,579.632 212.551,580.632 215.5,581.5C 203.167,581.5 190.833,581.5 178.5,581.5C 178.5,587.167 178.5,592.833 178.5,598.5C 177.833,598.5 177.167,598.5 176.5,598.5C 176.5,592.833 176.5,587.167 176.5,581.5C 150.5,581.5 124.5,581.5 98.5,581.5C 98.5,587.167 98.5,592.833 98.5,598.5C 97.8333,598.5 97.1667,598.5 96.5,598.5C 96.5,592.833 96.5,587.167 96.5,581.5C 69.8333,581.5 43.1667,581.5 16.5,581.5C 16.5,587.167 16.5,592.833 16.5,598.5C 15.8333,598.5 15.1667,598.5 14.5,598.5C 14.5,592.833 14.5,587.167 14.5,581.5C 9.5,581.5 4.5,581.5 -0.5,581.5C -0.5,580.833 -0.5,580.167 -0.5,579.5C 4.5,579.5 9.5,579.5 14.5,579.5C 14.5,553.167 14.5,526.833 14.5,500.5C 9.5,500.5 4.5,500.5 -0.5,500.5C -0.5,499.833 -0.5,499.167 -0.5,498.5C 4.5,498.5 9.5,498.5 14.5,498.5C 14.5,472.167 14.5,445.833 14.5,419.5C 9.5,419.5 4.5,419.5 -0.5,419.5C -0.5,418.833 -0.5,418.167 -0.5,417.5C 4.5,417.5 9.5,417.5 14.5,417.5C 14.5,404.5 14.5,391.5 14.5,378.5 Z"/></g>
<g><path style="opacity:1" fill="#0d0d0d" d="M -0.5,581.5 C 4.5,581.5 9.5,581.5 14.5,581.5C 14.5,587.167 14.5,592.833 14.5,598.5C 9.5,598.5 4.5,598.5 -0.5,598.5C -0.5,592.833 -0.5,587.167 -0.5,581.5 Z"/></g>
<g><path style="opacity:1" fill="#0e0e0e" d="M 96.5,598.5 C 69.8333,598.5 43.1667,598.5 16.5,598.5C 16.5,592.833 16.5,587.167 16.5,581.5C 43.1667,581.5 69.8333,581.5 96.5,581.5C 96.5,587.167 96.5,592.833 96.5,598.5 Z"/></g>
<g><path style="opacity:1" fill="#0e0e0e" d="M 176.5,598.5 C 150.5,598.5 124.5,598.5 98.5,598.5C 98.5,592.833 98.5,587.167 98.5,581.5C 124.5,581.5 150.5,581.5 176.5,581.5C 176.5,587.167 176.5,592.833 176.5,598.5 Z"/></g>
<g><path style="opacity:1" fill="#111111" d="M 215.5,581.5 C 271.482,597.427 327.482,597.427 383.5,581.5C 395.833,581.5 408.167,581.5 420.5,581.5C 420.5,587.167 420.5,592.833 420.5,598.5C 339.833,598.5 259.167,598.5 178.5,598.5C 178.5,592.833 178.5,587.167 178.5,581.5C 190.833,581.5 203.167,581.5 215.5,581.5 Z"/></g>
<g><path style="opacity:1" fill="#202020" d="M 422.5,566.5 C 422.5,570.833 422.5,575.167 422.5,579.5C 428.167,579.5 433.833,579.5 439.5,579.5C 455.167,580.167 470.833,580.833 486.5,581.5C 465.167,581.5 443.833,581.5 422.5,581.5C 422.5,587.167 422.5,592.833 422.5,598.5C 421.833,598.5 421.167,598.5 420.5,598.5C 420.5,592.833 420.5,587.167 420.5,581.5C 408.167,581.5 395.833,581.5 383.5,581.5C 396.76,577.378 409.76,572.378 422.5,566.5 Z"/></g>
<g><path style="opacity:1" fill="#141414" d="M 486.5,581.5 C 491.167,581.5 495.833,581.5 500.5,581.5C 500.5,587.167 500.5,592.833 500.5,598.5C 474.5,598.5 448.5,598.5 422.5,598.5C 422.5,592.833 422.5,587.167 422.5,581.5C 443.833,581.5 465.167,581.5 486.5,581.5 Z"/></g>
<g><path style="opacity:1" fill="#171717" d="M 582.5,598.5 C 555.833,598.5 529.167,598.5 502.5,598.5C 502.5,592.833 502.5,587.167 502.5,581.5C 529.167,581.5 555.833,581.5 582.5,581.5C 582.5,587.167 582.5,592.833 582.5,598.5 Z"/></g>
<g><path style="opacity:1" fill="#191919" d="M 600.5,581.5 C 600.5,587.167 600.5,592.833 600.5,598.5C 595.167,598.5 589.833,598.5 584.5,598.5C 584.5,592.833 584.5,587.167 584.5,581.5C 589.833,581.5 595.167,581.5 600.5,581.5 Z"/></g>
</svg>
