<?xml version="1.0" encoding="UTF-8"?>
<!DOCTYPE svg PUBLIC "-//W3C//DTD SVG 1.1//EN" "http://www.w3.org/Graphics/SVG/1.1/DTD/svg11.dtd">
<svg xmlns="http://www.w3.org/2000/svg" version="1.1" width="240px" height="240px" style="shape-rendering:geometricPrecision; text-rendering:geometricPrecision; image-rendering:optimizeQuality; fill-rule:evenodd; clip-rule:evenodd" xmlns:xlink="http://www.w3.org/1999/xlink">
<g><path style="opacity:0.983" fill="#7d56c2" d="M 104.5,19.5 C 130.106,17.2192 149.273,27.2192 162,49.5C 168.503,60.3393 172.17,72.006 173,84.5C 167.688,81.762 162.188,79.4287 156.5,77.5C 152.84,63.3385 145.507,51.5051 134.5,42C 115.336,30.8169 98.8362,33.9835 85,51.5C 71.4203,72.2984 67.0869,94.965 72,119.5C 74.1339,130.076 78.3005,139.743 84.5,148.5C 100.036,147.931 106.536,155.265 104,170.5C 99.6524,178.915 92.8191,181.748 83.5,179C 76.3139,175.468 73.1472,169.635 74,161.5C 57.401,138.868 51.0677,113.535 55,85.5C 57.769,63.4604 67.269,44.9604 83.5,30C 90.045,25.3941 97.045,21.8941 104.5,19.5 Z"/></g>
<g><path style="opacity:0.981" fill="#7d56c2" d="M 98.5,79.5 C 105.267,78.381 111.267,79.881 116.5,84C 157.574,83.452 189.74,99.952 213,133.5C 224.396,150.815 227.396,169.481 222,189.5C 215.949,203.217 205.782,212.384 191.5,217C 170.801,221.853 150.801,219.853 131.5,211C 136.5,207.167 141.5,203.333 146.5,199.5C 160.347,204.167 174.347,204.667 188.5,201C 206.487,192.054 212.654,177.887 207,158.5C 198.508,137.005 184.008,120.838 163.5,110C 149.4,102.223 134.4,99.3897 118.5,101.5C 113.924,109.085 107.258,111.585 98.5,109C 90.0851,104.652 87.2517,97.8191 90,88.5C 91.6878,84.3148 94.5212,81.3148 98.5,79.5 Z"/></g>
<g><path style="opacity:0.982" fill="#7d56c2" d="M 41.5,114.5 C 43.045,115.23 43.8784,116.563 44,118.5C 45.1679,123.482 45.8345,128.482 46,133.5C 36.6356,144.246 31.1356,156.746 29.5,171C 30.3677,186.866 38.3677,197.2 53.5,202C 68.4646,205.171 83.1313,203.838 97.5,198C 119.404,189.261 135.738,174.427 146.5,153.5C 141.963,143.41 144.297,135.576 153.5,130C 169.667,127.5 176.5,134.333 174,150.5C 171.096,155.743 166.762,159.076 161,160.5C 143.892,192.588 117.392,212.088 81.5,219C 58.5394,223.227 39.0394,217.061 23,200.5C 13.2012,183.567 11.8678,165.9 19,147.5C 24.3757,134.974 31.8757,123.974 41.5,114.5 Z"/></g>
</svg>
